# Blender 3.3.1
# www.blender.org
mtllib machinegun.mtl
o Cylinder
v -0.747111 0.211593 -5.054474
v -0.747111 3.900355 -5.054474
v -0.747111 0.211593 -5.606288
v -0.747111 3.900355 -5.606288
v 0.747111 0.211593 -5.054474
v 0.747111 3.900355 -5.054474
v 0.747111 0.211593 -5.606288
v 0.747111 3.900355 -5.606288
v -0.612163 0.525099 -5.054474
v -0.612163 3.784607 -5.054474
v 0.612163 3.784607 -5.054474
v 0.612163 0.525099 -5.054474
v -0.612163 0.525099 -2.388618
v -0.612163 3.784607 -2.388618
v 0.612163 3.784607 -2.388618
v 0.612163 0.525099 -2.388618
v -0.747111 0.211593 -2.388618
v -0.747111 3.900355 -2.388618
v 0.747111 0.211593 -2.388618
v 0.747111 3.900355 -2.388618
v -1.194467 1.143535 2.095117
v -1.194467 3.974448 2.095117
v 1.194467 1.143535 2.095117
v 1.194467 3.974448 2.095117
v -0.747111 2.123385 4.716659
v -0.747111 3.665325 3.938108
v 0.747111 2.123385 4.716659
v 0.747111 3.665325 3.938108
v -0.398154 -0.432673 4.999954
v -0.549584 2.123657 4.163484
v -0.398154 -0.821259 3.677509
v -0.549584 1.357880 2.601387
v 0.398154 -0.432673 4.999954
v 0.549584 2.123657 4.163484
v 0.398154 -0.821259 3.677509
v 0.549584 1.357880 2.601387
v -0.519244 -0.827845 3.581422
v -0.519244 -0.399835 5.082916
v 0.519244 -0.827845 3.581422
v 0.519244 -0.399835 5.082916
v -0.519244 -1.292611 3.717988
v -0.519244 -1.046056 5.582391
v 0.519244 -1.292611 3.717988
v 0.519244 -1.046056 5.582391
v -0.550494 2.766875 -2.309054
v -0.550494 3.227924 -2.309054
v -0.550494 2.766875 -5.108976
v -0.550494 3.227924 -5.108976
v -0.703053 2.766875 -2.309054
v -0.703053 3.227924 -2.309054
v -0.703053 2.766875 -5.108976
v -0.703053 3.227924 -5.108976
v -0.000000 2.808726 -5.536093
v -0.000000 2.808726 -5.929772
v 0.406844 3.043617 -5.536093
v 0.406844 3.043617 -5.929772
v 0.406844 3.513400 -5.536093
v 0.406844 3.513400 -5.929772
v -0.000000 3.748292 -5.536093
v -0.000000 3.748292 -5.929772
v -0.406844 3.513400 -5.536093
v -0.406844 3.513400 -5.929772
v -0.406844 3.043617 -5.536093
v -0.406844 3.043617 -5.929772
v 0.157581 0.040238 2.676733
v 0.157581 1.805370 2.370056
v 0.157581 0.004872 2.473181
v 0.157581 1.770005 2.166504
v -0.157581 0.040238 2.676733
v -0.157581 1.805370 2.370056
v -0.157581 0.004872 2.473181
v -0.157581 1.770005 2.166504
v -0.747111 0.211594 0.864482
v 0.747111 0.211594 0.864482
v -0.550494 1.116082 -2.309054
v -0.550494 1.577131 -2.309054
v -0.550494 1.116082 -5.108976
v -0.550494 1.577131 -5.108976
v -0.703053 1.116082 -2.309054
v -0.703053 1.577131 -2.309054
v -0.703053 1.116082 -5.108976
v -0.703053 1.577131 -5.108976
v -0.000000 0.447700 -5.536093
v -0.000000 0.447700 -5.929772
v 0.406844 0.682592 -5.536093
v 0.406844 0.682592 -5.929772
v 0.406844 1.152375 -5.536093
v 0.406844 1.152375 -5.929772
v -0.000000 1.387266 -5.536093
v -0.000000 1.387266 -5.929772
v -0.406844 1.152375 -5.536093
v -0.406844 1.152375 -5.929772
v -0.406844 0.682592 -5.536093
v -0.406844 0.682592 -5.929772
v -0.000000 1.604467 -5.536093
v -0.000000 1.604467 -5.929772
v 0.406844 1.839358 -5.536093
v 0.406844 1.839358 -5.929772
v 0.406844 2.309141 -5.536093
v 0.406844 2.309141 -5.929772
v -0.000000 2.544033 -5.536093
v -0.000000 2.544033 -5.929772
v -0.406844 2.309141 -5.536093
v -0.406844 2.309141 -5.929772
v -0.406844 1.839358 -5.536093
v -0.406844 1.839358 -5.929772
v 0.499902 1.096897 -1.766461
v 0.499902 -1.720735 -1.766461
v 0.499902 1.096897 0.233539
v 0.499902 -2.290106 0.233539
v -0.499902 1.096897 -1.766461
v -0.499902 -1.720735 -1.766461
v -0.499902 1.096897 0.233539
v -0.499902 -2.290106 0.233539
v 0.550494 2.766875 -2.309054
v 0.550494 3.227924 -2.309054
v 0.550494 2.766875 -5.108976
v 0.550494 3.227924 -5.108976
v 0.703053 2.766875 -2.309054
v 0.703053 3.227924 -2.309054
v 0.703053 2.766875 -5.108976
v 0.703053 3.227924 -5.108976
v 0.550494 1.116082 -2.309054
v 0.550494 1.577131 -2.309054
v 0.550494 1.116082 -5.108976
v 0.550494 1.577131 -5.108976
v 0.703053 1.116082 -2.309054
v 0.703053 1.577131 -2.309054
v 0.703053 1.116082 -5.108976
v 0.703053 1.577131 -5.108976
vn -1.0000 -0.0000 -0.0000
vn -0.0000 -0.0000 -1.0000
vn 1.0000 -0.0000 -0.0000
vn -0.0000 -1.0000 -0.0000
vn -0.0000 1.0000 -0.0000
vn -0.0000 -0.0000 1.0000
vn -0.0000 0.9999 -0.0165
vn -0.9951 -0.0000 -0.0993
vn -0.0000 -0.9367 0.3501
vn -0.9809 0.0341 0.1915
vn -0.0000 0.9862 0.1654
vn 0.9809 0.0341 0.1915
vn -0.0000 0.4507 0.8927
vn -0.9982 -0.0550 0.0220
vn -0.0000 -0.4428 -0.8966
vn 0.9982 -0.0550 0.0220
vn -0.0000 0.3110 0.9504
vn -0.0000 0.8979 -0.4402
vn -0.1184 0.9539 -0.2758
vn -0.0000 0.9298 -0.3680
vn -0.0000 0.9977 -0.0684
vn 0.1184 0.9539 -0.2758
vn -0.0000 -0.9914 0.1311
vn -0.0000 0.6115 0.7912
vn -0.0000 -0.2819 -0.9594
vn 0.5000 -0.8660 -0.0000
vn 0.5000 0.8660 -0.0000
vn -0.5000 0.8660 -0.0000
vn -0.5000 -0.8660 -0.0000
vn -0.0000 -0.1712 -0.9852
vn -0.0000 0.1712 0.9852
vn -0.0000 -0.9852 0.1712
vn -0.0000 0.9852 -0.1712
vn -0.9603 -0.1846 -0.2093
vn -0.0000 -0.7972 0.6037
vn -0.0000 -0.9618 -0.2738
vn 0.9603 -0.1846 -0.2093
vn 0.9951 -0.0000 -0.0993
vt 0.807344 0.610188
vt 0.822395 0.298306
vt 0.010727 0.605592
vt 0.807344 0.414378
vt 0.010727 0.901588
vt 0.010727 0.800811
vt 0.836638 0.610186
vt 0.415998 0.411104
vt 0.851640 0.298306
vt 0.836638 0.414376
vt 0.415998 0.606652
vt 0.039943 0.901588
vt 0.639650 0.615893
vt 0.822395 0.377630
vt 0.090050 0.605592
vt 0.639650 0.811703
vt 0.010727 0.822264
vt 0.090050 0.800811
vt 0.336674 0.411104
vt 0.668943 0.615895
vt 0.851640 0.377630
vt 0.336674 0.606652
vt 0.668943 0.811706
vt 0.039943 0.822264
vt 0.290304 0.605592
vt 0.336674 0.628106
vt 0.315220 0.584129
vt 0.771563 0.631642
vt 0.290304 0.778385
vt 0.315220 0.411104
vt 0.706567 0.631642
vt 0.225308 0.778385
vt 0.152247 0.584138
vt 0.225308 0.605592
vt 0.152247 0.411114
vt 0.401670 0.628106
vt 0.336674 0.769389
vt 0.173701 0.584138
vt 0.778727 0.431259
vt 0.771563 0.772790
vt 0.173701 0.411114
vt 0.778727 0.604052
vt 0.706567 0.772790
vt 0.010727 0.584129
vt 0.713731 0.604052
vt 0.010727 0.411104
vt 0.401670 0.769389
vt 0.713731 0.431259
vt 0.785891 0.414640
vt 0.475064 0.010727
vt 0.234082 0.389650
vt 0.785891 0.610188
vt 0.702662 0.010727
vt 0.429862 0.386193
vt 0.706567 0.414640
vt 0.554387 0.010727
vt 0.013787 0.010727
vt 0.706567 0.610188
vt 0.623339 0.010727
vt 0.209567 0.014184
vt 0.279612 0.150652
vt 0.451315 0.251228
vt 0.429862 0.147999
vt 0.726411 0.248411
vt 0.578136 0.251228
vt 0.059317 0.249725
vt 0.599590 0.248411
vt 0.209567 0.252378
vt 0.475064 0.393186
vt 0.328865 0.010727
vt 0.111504 0.768508
vt 0.411435 0.050606
vt 0.702662 0.344797
vt 0.111504 0.853361
vt 0.554387 0.393186
vt 0.108571 0.389650
vt 0.190828 0.768508
vt 0.623339 0.344797
vt 0.191141 0.349772
vt 0.190828 0.853361
vt 0.183921 0.605592
vt 0.755904 0.010727
vt 0.755269 0.870874
vt 0.203855 0.747055
vt 0.747865 0.149506
vt 0.395025 0.876505
vt 0.111806 0.617971
vt 0.843329 0.631642
vt 0.755269 0.799356
vt 0.111504 0.747055
vt 0.851368 0.750197
vt 0.395025 0.790843
vt 0.471248 0.615893
vt 0.798177 0.010727
vt 0.712995 0.870874
vt 0.451315 0.757356
vt 0.806216 0.149506
vt 0.336674 0.876505
vt 0.801055 0.631642
vt 0.543363 0.628273
vt 0.712995 0.799356
vt 0.793016 0.750197
vt 0.543665 0.757356
vt 0.336674 0.790843
vt 0.761697 0.794243
vt 0.839745 0.010727
vt 0.793016 0.952472
vt 0.761697 0.875394
vt 0.827670 0.092724
vt 0.706567 0.896848
vt 0.577194 0.920385
vt 0.706567 0.794243
vt 0.793016 0.897342
vt 0.565119 0.838387
vt 0.706567 0.875394
vt 0.706567 0.951978
vt 0.451315 0.778810
vt 0.865154 0.014681
vt 0.818040 0.952472
vt 0.451315 0.878378
vt 0.865154 0.114516
vt 0.742851 0.896848
vt 0.602603 0.916430
vt 0.506445 0.778810
vt 0.818040 0.897342
vt 0.602603 0.816596
vt 0.506445 0.878378
vt 0.742851 0.951978
vt 0.918749 0.780281
vt 0.502618 0.945727
vt 0.950952 0.319347
vt 0.943223 0.780279
vt 0.502618 0.970127
vt 0.948302 0.949980
vt 0.918749 0.631644
vt 0.494519 0.899832
vt 0.950952 0.170960
vt 0.943223 0.631642
vt 0.494519 0.924273
vt 0.948302 0.801734
vt 0.872822 0.631642
vt 0.494519 0.945727
vt 0.942853 0.319347
vt 0.897295 0.631644
vt 0.494519 0.970127
vt 0.956401 0.949980
vt 0.502618 0.899832
vt 0.872822 0.780279
vt 0.942853 0.170960
vt 0.502618 0.924273
vt 0.897295 0.780281
vt 0.956401 0.801734
vt 0.112229 0.967675
vt 0.908206 0.131745
vt 0.769463 0.391590
vt 0.133093 0.967675
vt 0.111504 0.989273
vt 0.684295 0.366251
vt 0.886608 0.119314
vt 0.132368 0.989273
vt 0.705194 0.366253
vt 0.791061 0.379138
vt 0.684295 0.391189
vt 0.640556 0.904421
vt 0.886608 0.094452
vt 0.705194 0.391190
vt 0.661400 0.904421
vt 0.791061 0.354234
vt 0.639650 0.926019
vt 0.908206 0.082021
vt 0.660493 0.926019
vt 0.769463 0.341781
vt 0.640556 0.947617
vt 0.900444 0.584470
vt 0.929804 0.094452
vt 0.661400 0.947617
vt 0.747865 0.354234
vt 0.921343 0.584468
vt 0.900444 0.609407
vt 0.111504 0.946077
vt 0.929804 0.119314
vt 0.747865 0.379138
vt 0.921343 0.609406
vt 0.132368 0.946077
vt 0.983374 0.266064
vt 0.967989 0.037050
vt 0.336674 0.979340
vt 0.983374 0.170961
vt 0.967989 0.131745
vt 0.416479 0.960684
vt 0.972406 0.266063
vt 0.176154 0.874815
vt 0.347571 0.979340
vt 0.972406 0.170960
vt 0.176154 0.969253
vt 0.427393 0.960684
vt 0.983374 0.287518
vt 0.951258 0.037050
vt 0.336674 0.962609
vt 0.983374 0.382621
vt 0.951258 0.131745
vt 0.416479 0.977415
vt 0.192885 0.874815
vt 0.972406 0.287519
vt 0.347571 0.962609
vt 0.192885 0.969253
vt 0.972406 0.382622
vt 0.427393 0.977415
vt 0.231021 0.216983
vt 0.475064 0.183132
vt 0.554387 0.183132
vt 0.010727 0.183394
vt 0.225309 0.948477
vt 0.387977 0.943854
vt 0.926848 0.950122
vt 0.249782 0.948476
vt 0.387977 0.968254
vt 0.964677 0.779888
vt 0.225309 0.799840
vt 0.379878 0.897959
vt 0.926848 0.801734
vt 0.249782 0.799839
vt 0.379878 0.922400
vt 0.964677 0.631642
vt 0.858092 0.414376
vt 0.379878 0.943854
vt 0.918749 0.950122
vt 0.882565 0.414377
vt 0.379878 0.968254
vt 0.972776 0.779888
vt 0.387977 0.897959
vt 0.858092 0.563013
vt 0.918749 0.801734
vt 0.387977 0.922400
vt 0.882565 0.563014
vt 0.972776 0.631642
vt 0.011452 0.944640
vt 0.886608 0.023245
vt 0.661248 0.882968
vt 0.032316 0.944640
vt 0.010727 0.966238
vt 0.858092 0.584468
vt 0.908155 0.010727
vt 0.031591 0.966238
vt 0.878991 0.584470
vt 0.682846 0.870516
vt 0.858092 0.609406
vt 0.452222 0.899832
vt 0.929703 0.023129
vt 0.878991 0.609407
vt 0.473065 0.899832
vt 0.682846 0.845611
vt 0.451315 0.921430
vt 0.929703 0.048049
vt 0.472159 0.921430
vt 0.661248 0.833159
vt 0.452222 0.943028
vt 0.942797 0.584470
vt 0.908155 0.060567
vt 0.473065 0.943028
vt 0.639650 0.845611
vt 0.963696 0.584468
vt 0.942797 0.609407
vt 0.010727 0.923042
vt 0.886608 0.048165
vt 0.639650 0.870516
vt 0.963696 0.609406
vt 0.031591 0.923042
vt 0.565844 0.963437
vt 0.918524 0.390776
vt 0.133102 0.924623
vt 0.586708 0.963437
vt 0.565119 0.985035
vt 0.599590 0.366251
vt 0.896926 0.378345
vt 0.585983 0.985035
vt 0.620489 0.366253
vt 0.154700 0.912171
vt 0.599590 0.391189
vt 0.337581 0.897959
vt 0.896926 0.353483
vt 0.620489 0.391190
vt 0.358424 0.897959
vt 0.154700 0.887267
vt 0.336674 0.919557
vt 0.918524 0.341052
vt 0.357518 0.919557
vt 0.133102 0.874815
vt 0.337581 0.941155
vt 0.641943 0.366253
vt 0.940122 0.353483
vt 0.358424 0.941155
vt 0.111504 0.887267
vt 0.662841 0.366251
vt 0.641943 0.391190
vt 0.565119 0.941839
vt 0.940122 0.378345
vt 0.111504 0.912171
vt 0.662841 0.391189
vt 0.585983 0.941839
vt 0.822395 0.170959
vt 0.557487 0.594440
vt 0.747865 0.320328
vt 0.846093 0.771651
vt 0.557487 0.444871
vt 0.747865 0.170959
vt 0.822395 0.276852
vt 0.618196 0.795142
vt 0.451315 0.594432
vt 0.846093 0.875888
vt 0.618196 0.615893
vt 0.451315 0.414640
vt 0.875472 0.170959
vt 0.800941 0.320328
vt 0.685113 0.414640
vt 0.793017 0.771651
vt 0.800941 0.170959
vt 0.685113 0.564208
vt 0.875472 0.276852
vt 0.565119 0.795142
vt 0.578941 0.414647
vt 0.793016 0.875888
vt 0.565119 0.615893
vt 0.578941 0.594439
vt 0.271236 0.799839
vt 0.527899 0.948651
vt 0.527899 0.927197
vt 0.295710 0.799840
vt 0.527899 0.973051
vt 0.069496 0.970510
vt 0.271236 0.948476
vt 0.616261 0.941839
vt 0.527899 0.778809
vt 0.295710 0.948477
vt 0.616261 0.966280
vt 0.069496 0.822264
vt 0.872822 0.950373
vt 0.535998 0.948651
vt 0.535998 0.927197
vt 0.897296 0.950371
vt 0.535998 0.973051
vt 0.061397 0.970510
vt 0.608162 0.941839
vt 0.872822 0.801736
vt 0.535998 0.778809
vt 0.608162 0.966280
vt 0.897296 0.801734
vt 0.061397 0.822264
vt 0.904019 0.414376
vt 0.839494 0.943237
vt 0.416479 0.939231
vt 0.928493 0.414377
vt 0.839494 0.967637
vt 0.958046 0.562622
vt 0.904019 0.563013
vt 0.847592 0.897342
vt 0.416479 0.790843
vt 0.928493 0.563014
vt 0.847592 0.921783
vt 0.958046 0.414376
vt 0.896926 0.319598
vt 0.847592 0.943237
vt 0.424578 0.939231
vt 0.921399 0.319596
vt 0.847592 0.967637
vt 0.949947 0.562622
vt 0.839493 0.897342
vt 0.896926 0.170961
vt 0.424578 0.790843
vt 0.839493 0.921783
vt 0.921399 0.170959
vt 0.949947 0.414376
s 0
usemtl Material.001
f 1/1/1 2/4/1 4/10/1 3/7/1
f 3/8/2 4/11/2 8/22/2 7/19/2
f 7/20/3 8/23/3 6/16/3 5/13/3
f 3/9/4 7/21/4 5/14/4 1/2/4
f 8/24/5 4/12/5 2/5/5 6/17/5
f 11/31/5 10/28/5 14/40/5 15/43/5
f 9/25/2 10/29/2 11/32/2 12/34/2
f 1/3/6 5/15/6 6/18/6 2/6/6
f 14/42/2 18/52/2 20/58/2 15/45/2
f 12/35/3 11/33/3 15/44/3 16/46/3
f 9/26/4 12/36/4 16/47/4 13/37/4
f 10/30/1 9/27/1 13/38/1 14/41/1
f 16/48/2 15/45/2 20/58/2 19/55/2
f 16/48/2 19/55/2 17/49/2 13/39/2
f 14/42/2 13/39/2 17/49/2 18/52/2
f 20/59/7 18/53/7 22/64/7 24/67/7
f 22/63/8 18/54/8 21/61/8
f 21/62/9 23/65/9 27/75/9 25/69/9
f 22/63/10 21/61/10 25/70/10 26/72/10
f 24/67/11 22/64/11 26/73/11 28/78/11
f 23/66/12 24/68/12 28/79/12 27/76/12
f 25/71/13 27/77/13 28/80/13 26/74/13
f 29/81/14 30/84/14 32/90/14 31/87/14
f 31/88/15 32/91/15 36/102/15 35/99/15
f 35/100/16 36/103/16 34/96/16 33/93/16
f 33/94/17 34/97/17 30/85/17 29/82/17
f 36/104/18 32/92/18 30/86/18 34/98/18
f 35/101/19 33/95/19 40/115/19 39/112/19
f 39/111/3 40/114/3 44/126/3 43/123/3
f 33/95/20 29/83/20 38/108/20 40/115/20
f 31/89/21 35/101/21 39/112/21 37/105/21
f 29/83/22 31/89/22 37/105/22 38/108/22
f 41/117/23 43/124/23 44/127/23 42/120/23
f 38/109/1 37/106/1 41/118/1 42/121/1
f 40/116/24 38/110/24 42/122/24 44/128/24
f 37/107/25 39/113/25 43/125/25 41/119/25
f 45/129/3 47/135/3 48/138/3 46/132/3
f 47/136/2 51/147/2 52/150/2 48/139/2
f 51/148/1 49/141/1 50/144/1 52/151/1
f 49/142/6 45/130/6 46/133/6 50/145/6
f 47/137/4 45/131/4 49/143/4 51/149/4
f 52/152/5 50/146/5 46/134/5 48/140/5
f 53/153/26 54/156/26 56/160/26 55/157/26
f 55/158/3 56/161/3 58/166/3 57/163/3
f 57/164/27 58/167/27 60/171/27 59/169/27
f 59/169/28 60/171/28 62/176/28 61/173/28
f 56/162/2 54/155/2 64/182/2 62/177/2 60/172/2 58/168/2
f 61/174/1 62/178/1 64/183/1 63/179/1
f 63/180/29 64/184/29 54/156/29 53/153/29
f 53/154/6 55/159/6 57/165/6 59/170/6 61/175/6 63/181/6
f 65/185/3 67/191/3 68/194/3 66/188/3
f 67/192/30 71/203/30 72/206/30 68/195/30
f 71/204/1 69/197/1 70/200/1 72/207/1
f 69/198/31 65/186/31 66/189/31 70/201/31
f 67/193/32 65/187/32 69/199/32 71/205/32
f 72/208/33 70/202/33 66/190/33 68/196/33
f 19/56/4 74/211/4 73/210/4 17/50/4
f 18/54/1 17/51/1 73/209/1
f 18/54/34 73/209/34 21/61/34
f 23/65/35 21/62/35 73/210/35 74/211/35
f 75/213/3 77/219/3 78/222/3 76/216/3
f 77/220/2 81/231/2 82/234/2 78/223/2
f 81/232/1 79/225/1 80/228/1 82/235/1
f 79/226/6 75/214/6 76/217/6 80/229/6
f 77/221/4 75/215/4 79/227/4 81/233/4
f 82/236/5 80/230/5 76/218/5 78/224/5
f 83/237/26 84/240/26 86/244/26 85/241/26
f 85/242/3 86/245/3 88/250/3 87/247/3
f 87/248/27 88/251/27 90/255/27 89/253/27
f 89/253/28 90/255/28 92/260/28 91/257/28
f 86/246/2 84/239/2 94/266/2 92/261/2 90/256/2 88/252/2
f 91/258/1 92/262/1 94/267/1 93/263/1
f 93/264/29 94/268/29 84/240/29 83/237/29
f 83/238/6 85/243/6 87/249/6 89/254/6 91/259/6 93/265/6
f 95/269/26 96/272/26 98/276/26 97/273/26
f 97/274/3 98/277/3 100/282/3 99/279/3
f 99/280/27 100/283/27 102/287/27 101/285/27
f 101/285/28 102/287/28 104/292/28 103/289/28
f 98/278/2 96/271/2 106/298/2 104/293/2 102/288/2 100/284/2
f 103/290/1 104/294/1 106/299/1 105/295/1
f 105/296/29 106/300/29 96/272/29 95/269/29
f 95/270/6 97/275/6 99/281/6 101/286/6 103/291/6 105/297/6
f 107/301/5 111/313/5 113/319/5 109/307/5
f 112/316/36 108/304/36 110/310/36 114/322/36
f 110/311/6 109/308/6 113/320/6 114/323/6
f 108/305/3 107/302/3 109/309/3 110/312/3
f 112/317/2 111/314/2 107/303/2 108/306/2
f 114/324/1 113/321/1 111/315/1 112/318/1
f 19/57/3 20/60/3 74/212/3
f 74/212/37 20/60/37 23/66/37
f 23/66/38 20/60/38 24/68/38
f 115/325/1 116/328/1 118/334/1 117/331/1
f 117/332/2 118/335/2 122/346/2 121/343/2
f 121/344/3 122/347/3 120/340/3 119/337/3
f 119/338/6 120/341/6 116/329/6 115/326/6
f 117/333/4 121/345/4 119/339/4 115/327/4
f 122/348/5 118/336/5 116/330/5 120/342/5
f 123/349/1 124/352/1 126/358/1 125/355/1
f 125/356/2 126/359/2 130/370/2 129/367/2
f 129/368/3 130/371/3 128/364/3 127/361/3
f 127/362/6 128/365/6 124/353/6 123/350/6
f 125/357/4 129/369/4 127/363/4 123/351/4
f 130/372/5 126/360/5 124/354/5 128/366/5
