# Blender 3.3.1
# www.blender.org
mtllib shotgun.mtl
o Cylinder
v -1.311502 1.061407 -6.836667
v -1.311502 1.061407 -1.684980
v -0.900001 1.777849 -6.836667
v -0.900000 1.777849 -1.684980
v 0.899999 1.777849 -6.836667
v 0.900000 1.777849 -1.684980
v 1.311502 1.061407 -6.836666
v 1.311502 1.061407 -1.684980
v 0.899999 0.344964 -6.836667
v 0.900000 0.344964 -1.684980
v -0.900001 0.344964 -6.836667
v -0.900000 0.344964 -1.684980
v -1.639072 1.061407 -7.243822
v -1.072664 2.042455 -7.243821
v 1.072663 2.042455 -7.243821
v 1.639072 1.061407 -7.243821
v 1.072663 0.080358 -7.243821
v -1.072664 0.080358 -7.243821
v -1.639073 1.061407 -7.716027
v -1.072664 2.042455 -7.716026
v 1.072663 2.042455 -7.716026
v 1.639071 1.061407 -7.716026
v 1.072663 0.080358 -7.716026
v -1.072664 0.080358 -7.716026
v -1.127602 -1.075132 -6.340361
v -1.127602 0.194355 -6.340361
v 1.127601 -1.075132 -6.340362
v 1.127601 0.194355 -6.340362
v -1.127602 -1.758563 -3.655487
v -1.127602 0.194355 -3.655487
v 1.127601 -1.758563 -3.655487
v 1.127601 0.194355 -3.655487
v -1.000000 -0.730945 -0.263138
v -0.500000 -0.014503 -0.263138
v 0.500000 -0.014503 -0.263138
v 1.000000 -0.730945 -0.263138
v 0.500000 -1.447388 -0.263138
v -0.500000 -1.447388 -0.263138
v -0.500000 -0.014503 -3.870376
v -1.000000 -0.730945 -3.870376
v 0.500000 -0.014503 -3.870376
v 0.999999 -0.730945 -3.870376
v 0.500000 -1.447388 -3.870376
v -0.500000 -1.447388 -3.870376
v -0.614999 0.035480 -5.877219
v -0.614999 0.414447 -5.877219
v 0.614998 0.035480 -5.877219
v 0.614998 0.414447 -5.877219
v -0.614999 0.035480 -4.118629
v -0.614999 0.414447 -4.118629
v 0.614999 0.035480 -4.118629
v 0.614999 0.414447 -4.118629
v -1.640780 0.122283 -1.819837
v -1.269647 2.122282 -1.819837
v 1.640780 0.122283 -1.819837
v 1.269647 2.122282 -1.819837
v -1.640781 0.122283 0.180163
v -1.269647 2.122282 0.180163
v 1.640780 0.122283 0.180163
v 1.269647 2.122282 0.180163
v 1.400860 -1.533532 -0.369660
v -1.400860 -1.533532 -0.369660
v 0.699386 -1.488169 1.154025
v -0.699386 -1.488169 1.154025
v -0.544269 1.318806 2.431640
v 0.544269 1.318806 2.431640
v -0.295472 -1.914643 3.152936
v -0.295472 -0.523112 1.557897
v 0.295471 -1.914644 3.152936
v 0.295470 -0.523112 1.557897
v -0.295471 -1.047932 3.920737
v -0.295472 1.096268 1.941922
v 0.295471 -1.047932 3.920737
v 0.295471 1.096269 1.941922
v 0.295471 -2.369458 5.041953
v -0.295471 -2.369458 5.041952
v 0.295471 -1.312991 5.060419
v -0.295471 -1.312991 5.060419
v 0.486580 -1.911462 6.128400
v -0.486580 -1.911463 6.128397
v 0.486580 -0.152870 6.396006
v -0.486580 -0.152871 6.396006
v 0.486580 -1.852796 8.343660
v -0.486579 -1.852797 8.343658
v 0.486579 0.306742 8.593657
v -0.486579 0.306741 8.593657
v -0.245157 -1.852079 2.111621
v -0.237659 -0.048477 1.247352
v 0.246799 -1.848714 2.122910
v 0.254297 -0.045112 1.258641
v -0.239974 -1.946793 1.914012
v -0.232476 -0.143190 1.049742
v 0.251981 -1.943428 1.925301
v 0.259480 -0.139826 1.061031
v -0.259795 1.677132 -7.133662
v -0.259795 1.920635 -7.133662
v 0.259794 1.677132 -7.133662
v 0.259794 1.920635 -7.133662
v -0.259794 1.677132 -1.409594
v -0.259794 1.920635 -1.409594
v 0.259795 1.677132 -1.409594
v 0.259795 1.920635 -1.409594
v -1.266603 1.069527 -7.497575
v -1.266604 1.069527 -8.184726
v 1.266602 1.069527 -8.184726
v 1.266603 1.069527 -7.497575
v 0.982087 0.576732 -8.184726
v 0.982087 0.576732 -7.497574
v 0.413056 0.576732 -8.184726
v 0.413056 0.576732 -7.497574
v 0.128541 1.069527 -8.184726
v 0.128541 1.069527 -7.497574
v 0.413056 1.562322 -8.184726
v 0.413056 1.562322 -7.497574
v 0.982087 1.562322 -8.184726
v 0.982087 1.562322 -7.497574
v -0.982089 0.576732 -8.184726
v -0.982089 0.576732 -7.497574
v -0.413058 0.576732 -8.184726
v -0.413058 0.576732 -7.497574
v -0.128542 1.069527 -8.184726
v -0.128543 1.069527 -7.497574
v -0.413058 1.562322 -8.184726
v -0.413058 1.562322 -7.497574
v -0.982088 1.562322 -8.184726
v -0.982089 1.562322 -7.497574
vn -0.8671 0.4981 -0.0000
vn -0.0000 1.0000 -0.0000
vn 0.8671 0.4981 -0.0000
vn 0.8671 -0.4981 -0.0000
vn -0.0000 -0.0000 1.0000
vn -0.0000 -1.0000 -0.0000
vn -0.8671 -0.4981 -0.0000
vn 0.7117 0.4100 0.5704
vn -0.8660 0.5000 -0.0000
vn -0.7117 -0.4100 0.5704
vn 0.7117 -0.4100 0.5704
vn -0.0000 0.8385 0.5449
vn -0.0000 -0.8385 0.5449
vn -0.7117 0.4100 0.5704
vn -0.0000 -0.0000 -1.0000
vn -0.8660 -0.5000 -0.0000
vn 0.8660 -0.5000 -0.0000
vn 0.8660 0.5000 -0.0000
vn 1.0000 -0.0000 -0.0000
vn -1.0000 -0.0000 -0.0000
vn -0.0000 -0.9691 -0.2467
vn -0.8200 -0.5723 -0.0000
vn 0.8200 -0.5723 -0.0000
vn 0.8200 0.5723 -0.0000
vn -0.8200 0.5723 -0.0000
vn 0.9832 0.1825 -0.0000
vn -0.0000 -0.9996 0.0298
vn -0.9832 0.1825 -0.0000
vn 0.9897 -0.1434 -0.0000
vn -0.8735 -0.2627 0.4099
vn -0.0000 -0.6588 -0.7523
vn -0.9897 -0.1434 -0.0000
vn 0.8735 -0.2627 0.4099
vn -0.0000 0.9418 0.3361
vn -0.9185 0.1704 0.3568
vn 0.9185 0.1704 0.3568
vn 0.8414 -0.1847 0.5079
vn -0.8414 -0.1847 0.5079
vn -0.0000 -0.4143 0.9102
vn -0.0000 -0.7535 -0.6574
vn -0.0000 0.6782 0.7349
vn -0.0000 0.2307 -0.9730
vn -0.9864 0.0247 -0.1626
vn -0.0000 -0.9722 -0.2341
vn -0.0000 0.9740 0.2265
vn -0.0000 0.9788 -0.2047
vn 0.9847 0.0030 -0.1745
vn -0.0000 0.7550 -0.6558
vn -0.0000 -0.9215 0.3884
vn -0.0000 -0.1150 0.9934
vn -0.0000 -0.9996 0.0265
vn -0.0236 0.4321 0.9015
vn 0.9997 0.0068 0.0229
vn 0.0236 -0.4321 -0.9015
vn -0.9997 -0.0068 -0.0229
vn -0.0037 -0.9018 0.4321
vn 0.0037 0.9018 -0.4321
vn -0.9847 0.0030 -0.1745
vn 0.9864 0.0247 -0.1626
vt 0.047127 0.699752
vt 0.973377 0.487863
vt 0.047052 0.856656
vt 0.047127 0.463215
vt 0.079962 0.699115
vt 0.470867 0.239223
vt 0.846124 0.947265
vt 0.974012 0.520698
vt 0.079962 0.462578
vt 0.470867 0.475845
vt 0.079957 0.833691
vt 0.388190 0.239223
vt 0.675949 0.239927
vt 0.956134 0.868832
vt 0.846124 0.864588
vt 0.388190 0.475845
vt 0.675949 0.476444
vt 0.079957 0.751014
vt 0.643093 0.239223
vt 0.955432 0.901687
vt 0.643093 0.475740
vt 0.047052 0.728046
vt 0.610133 0.239923
vt 0.499161 0.475691
vt 0.956134 0.934647
vt 0.873046 0.104752
vt 0.610133 0.476440
vt 0.014147 0.751011
vt 0.499161 0.239223
vt 0.581839 0.475692
vt 0.014147 0.699121
vt 0.974012 0.454883
vt 0.873046 0.022074
vt 0.014147 0.833688
vt 0.581839 0.239224
vt 0.014147 0.462584
vt 0.954380 0.487897
vt 0.955098 0.532876
vt 0.864741 0.955200
vt 0.864741 0.856661
vt 0.937198 0.856661
vt 0.936403 0.901663
vt 0.937198 0.946784
vt 0.892181 0.112687
vt 0.955098 0.442753
vt 0.892181 0.014147
vt 0.573720 0.164718
vt 0.932699 0.487895
vt 0.933417 0.532874
vt 0.528673 0.138699
vt 0.886430 0.955201
vt 0.528674 0.040160
vt 0.886430 0.856661
vt 0.915519 0.856663
vt 0.573720 0.014147
vt 0.914724 0.901665
vt 0.618767 0.040167
vt 0.915519 0.946785
vt 0.913856 0.112686
vt 0.618767 0.138705
vt 0.933417 0.442751
vt 0.913856 0.014147
vt 0.212268 0.786362
vt 0.668454 0.662683
vt 0.309653 0.761168
vt 0.270559 0.786366
vt 0.610144 0.662683
vt 0.750647 0.014147
vt 0.212268 0.889948
vt 0.759511 0.662683
vt 0.206067 0.761158
vt 0.270559 0.889952
vt 0.817821 0.662683
vt 0.647061 0.014147
vt 0.721882 0.530814
vt 0.699834 0.785958
vt 0.309653 0.639084
vt 0.811576 0.530817
vt 0.610133 0.785958
vt 0.750647 0.137466
vt 0.728128 0.785947
vt 0.721882 0.427229
vt 0.206067 0.639074
vt 0.817830 0.785947
vt 0.811576 0.427232
vt 0.647061 0.137466
vt 0.811846 0.106011
vt 0.737223 0.239860
vt 0.844752 0.083046
vt 0.892056 0.828367
vt 0.770057 0.239223
vt 0.844752 0.037114
vt 0.846124 0.828367
vt 0.174071 0.628893
vt 0.811846 0.014147
vt 0.141216 0.628188
vt 0.778941 0.037112
vt 0.108256 0.628888
vt 0.858473 0.442751
vt 0.778941 0.083044
vt 0.704242 0.239229
vt 0.904405 0.442752
vt 0.174050 0.837138
vt 0.892056 0.662683
vt 0.770057 0.404848
vt 0.141153 0.814170
vt 0.737223 0.405485
vt 0.174050 0.883070
vt 0.846124 0.662683
vt 0.174071 0.463282
vt 0.141153 0.906033
vt 0.141216 0.462578
vt 0.108256 0.883065
vt 0.108256 0.463278
vt 0.858473 0.608327
vt 0.108256 0.837133
vt 0.704242 0.404854
vt 0.904405 0.608327
vt 0.451290 0.979600
vt 0.159076 0.320009
vt 0.809248 0.640741
vt 0.433889 0.979599
vt 0.176483 0.320008
vt 0.986150 0.352283
vt 0.451290 0.923104
vt 0.159076 0.348303
vt 0.752751 0.640741
vt 0.433889 0.923103
vt 0.176483 0.348305
vt 0.929654 0.352283
vt 0.388190 0.979599
vt 0.159076 0.239264
vt 0.809248 0.560020
vt 0.405595 0.979600
vt 0.176483 0.239263
vt 0.986150 0.433057
vt 0.159076 0.429041
vt 0.388190 0.923103
vt 0.752751 0.560020
vt 0.176483 0.429042
vt 0.405595 0.923104
vt 0.929654 0.433057
vt 0.359895 0.316956
vt 0.258434 0.180603
vt 0.342842 0.408790
vt 0.345092 0.210929
vt 0.014147 0.434284
vt 0.063420 0.044408
vt 0.209167 0.316956
vt 0.226207 0.408790
vt 0.150117 0.014147
vt 0.130782 0.434283
vt 0.289217 0.094088
vt 0.014147 0.342422
vt 0.375875 0.124413
vt 0.094176 0.130925
vt 0.130782 0.342422
vt 0.180873 0.100664
vt 0.108256 0.657187
vt 0.219993 0.239223
vt 0.014147 0.132936
vt 0.108256 0.785875
vt 0.348681 0.239223
vt 0.209167 0.092084
vt 0.178271 0.670502
vt 0.039650 0.198545
vt 0.610133 0.634389
vt 0.178271 0.772560
vt 0.234666 0.026511
vt 0.712190 0.634389
vt 0.032766 0.239263
vt 0.375875 0.014147
vt 0.700700 0.504738
vt 0.112188 0.239263
vt 0.180873 0.210969
vt 0.621278 0.504738
vt 0.947493 0.748628
vt 0.499161 0.585384
vt 0.947502 0.819491
vt 0.504949 0.682411
vt 0.041290 0.884950
vt 0.388189 0.632699
vt 0.920350 0.748622
vt 0.920359 0.819486
vt 0.393977 0.535675
vt 0.014147 0.884971
vt 0.969293 0.111496
vt 0.932699 0.613435
vt 0.552220 0.581834
vt 0.969293 0.014147
vt 0.574587 0.713943
vt 0.041290 0.958856
vt 0.942150 0.111574
vt 0.441246 0.636244
vt 0.959842 0.613433
vt 0.463613 0.504139
vt 0.942150 0.014225
vt 0.014147 0.958877
vt 0.424699 0.714090
vt 0.920359 0.662683
vt 0.305378 0.616981
vt 0.396961 0.894809
vt 0.947502 0.662688
vt 0.535672 0.503985
vt 0.424104 0.894809
vt 0.500379 0.014147
vt 0.463613 0.685087
vt 0.959842 0.561170
vt 0.507925 0.742236
vt 0.257572 0.608615
vt 0.932699 0.561172
vt 0.574588 0.532987
vt 0.535069 0.742238
vt 0.452573 0.022514
vt 0.388190 0.844166
vt 0.292270 0.564703
vt 0.432889 0.844166
vt 0.487268 0.066456
vt 0.499161 0.803946
vt 0.214377 0.540034
vt 0.543861 0.803950
vt 0.409376 0.091128
vt 0.343552 0.786376
vt 0.388190 0.742384
vt 0.305378 0.463811
vt 0.298853 0.786362
vt 0.432889 0.742384
vt 0.500379 0.167356
vt 0.499161 0.905032
vt 0.343552 0.885703
vt 0.209167 0.437084
vt 0.543861 0.905035
vt 0.298853 0.885689
vt 0.404169 0.194087
vt 0.942150 0.252197
vt 0.985853 0.662692
vt 0.704243 0.433779
vt 0.942150 0.334540
vt 0.985853 0.754540
vt 0.726014 0.188393
vt 0.964748 0.252418
vt 0.079652 0.976808
vt 0.704243 0.456381
vt 0.964748 0.334761
vt 0.079652 0.884950
vt 0.726014 0.165790
vt 0.964748 0.139868
vt 0.975796 0.662683
vt 0.713476 0.433804
vt 0.964748 0.223699
vt 0.975796 0.754531
vt 0.735123 0.188363
vt 0.069584 0.976808
vt 0.942150 0.140072
vt 0.713476 0.456407
vt 0.069584 0.884950
vt 0.942150 0.223903
vt 0.735123 0.165760
vt 0.686539 0.165760
vt 0.348711 0.699903
vt 0.874377 0.405313
vt 0.697720 0.165761
vt 0.359895 0.699902
vt 0.822217 0.142573
vt 0.686539 0.189626
vt 0.902671 0.142573
vt 0.850511 0.405313
vt 0.697720 0.189627
vt 0.913856 0.142573
vt 0.798352 0.142573
vt 0.647061 0.189626
vt 0.348711 0.437085
vt 0.874377 0.142573
vt 0.658245 0.189626
vt 0.359895 0.437084
vt 0.822217 0.405485
vt 0.902671 0.405368
vt 0.647061 0.165760
vt 0.850511 0.142572
vt 0.913856 0.405369
vt 0.658245 0.165761
vt 0.798352 0.405485
vt 0.694176 0.978276
vt 0.257351 0.913888
vt 0.795210 0.978276
vt 0.635311 0.827433
vt 0.215182 0.913888
vt 0.753041 0.978276
vt 0.328143 0.983728
vt 0.795210 0.809972
vt 0.574827 0.960816
vt 0.285974 0.983728
vt 0.694176 0.809972
vt 0.753041 0.809972
vt 0.328143 0.966268
vt 0.574827 0.925896
vt 0.285974 0.966268
vt 0.663934 0.827433
vt 0.328143 0.931348
vt 0.605069 0.908436
vt 0.285974 0.931348
vt 0.663934 0.862353
vt 0.328143 0.913888
vt 0.795210 0.879813
vt 0.635311 0.925896
vt 0.285974 0.913888
vt 0.753041 0.879813
vt 0.694176 0.879813
vt 0.795210 0.862353
vt 0.635311 0.960816
vt 0.724418 0.862353
vt 0.753041 0.862353
vt 0.795210 0.827433
vt 0.605069 0.978276
vt 0.724418 0.827433
vt 0.753041 0.827433
vt 0.605069 0.809972
vt 0.753041 0.960816
vt 0.663934 0.960816
vt 0.795210 0.960816
vt 0.574827 0.827433
vt 0.753041 0.925896
vt 0.663934 0.925896
vt 0.795210 0.925896
vt 0.215182 0.983728
vt 0.574827 0.862353
vt 0.753041 0.908436
vt 0.694176 0.908436
vt 0.257351 0.983728
vt 0.795210 0.908436
vt 0.605069 0.879813
vt 0.215182 0.966268
vt 0.724418 0.925896
vt 0.257351 0.966268
vt 0.635311 0.862353
vt 0.215182 0.931348
vt 0.724418 0.960816
vt 0.257351 0.931348
s 0
usemtl Material.001
f 1/1/1 2/4/1 4/9/1 3/5/1
f 3/6/2 4/10/2 6/16/2 5/12/2
f 5/13/3 6/17/3 8/21/3 7/19/3
f 7/19/4 8/21/4 10/27/4 9/23/4
f 4/11/5 2/3/5 12/34/5 10/28/5 8/22/5 6/18/5
f 9/24/6 10/29/6 12/35/6 11/30/6
f 11/31/7 12/36/7 2/4/7 1/1/7
f 5/14/8 7/20/8 16/42/8 15/41/8
f 13/37/9 14/38/9 20/49/9 19/48/9
f 11/32/10 1/2/10 13/37/10 18/45/10
f 7/20/11 9/25/11 17/43/11 16/42/11
f 3/7/12 5/15/12 15/40/12 14/39/12
f 9/26/13 11/33/13 18/46/13 17/44/13
f 1/2/14 3/8/14 14/38/14 13/37/14
f 19/47/15 20/50/15 21/52/15 22/55/15 23/57/15 24/60/15
f 18/45/16 13/37/16 19/48/16 24/61/16
f 16/42/17 17/43/17 23/58/17 22/56/17
f 14/39/2 15/40/2 21/53/2 20/51/2
f 17/44/6 18/46/6 24/62/6 23/59/6
f 15/41/18 16/42/18 22/56/18 21/54/18
f 25/63/15 26/66/15 28/72/15 27/69/15
f 27/70/19 28/73/19 32/84/19 31/81/19
f 31/82/5 32/85/5 30/78/5 29/75/5
f 29/76/20 30/79/20 26/67/20 25/64/20
f 27/71/21 31/83/21 29/77/21 25/65/21
f 32/86/2 28/74/2 26/68/2 30/80/2
f 34/89/5 33/87/5 38/100/5 37/97/5 36/95/5 35/92/5
f 39/103/15 41/108/15 42/111/15 43/113/15 44/116/15 40/106/15
f 33/88/22 40/107/22 44/117/22 38/101/22
f 37/98/23 43/114/23 42/112/23 36/96/23
f 35/93/2 41/109/2 39/104/2 34/90/2
f 38/102/6 44/118/6 43/115/6 37/99/6
f 36/96/24 42/112/24 41/110/24 35/94/24
f 34/91/25 39/105/25 40/107/25 33/88/25
f 45/119/15 46/122/15 48/128/15 47/125/15
f 47/126/19 48/129/19 52/140/19 51/137/19
f 51/138/5 52/141/5 50/134/5 49/131/5
f 49/132/20 50/135/20 46/123/20 45/120/20
f 47/127/6 51/139/6 49/133/6 45/121/6
f 52/142/2 48/130/2 46/124/2 50/136/2
f 53/143/15 54/145/15 56/150/15 55/149/15
f 55/148/26 56/151/26 60/158/26 59/156/26
f 61/159/27 63/165/27 64/168/27 62/162/27
f 57/153/28 58/155/28 54/146/28 53/144/28
f 55/148/29 59/156/29 61/161/29
f 60/157/2 56/152/2 54/147/2 58/154/2
f 62/164/30 64/169/30 57/153/30
f 53/143/31 55/149/31 61/160/31 62/163/31
f 53/144/32 62/164/32 57/153/32
f 63/166/33 61/161/33 59/156/33
f 60/157/34 58/154/34 65/171/34 66/174/34
f 57/153/35 65/172/35 58/155/35
f 60/158/36 66/175/36 59/156/36
f 63/166/37 59/156/37 66/175/37
f 64/169/38 65/172/38 57/153/38
f 64/170/39 63/167/39 66/176/39 65/173/39
f 67/177/40 68/179/40 70/184/40 69/183/40
f 69/182/19 70/185/19 74/196/19 73/194/19
f 73/193/41 74/197/41 72/190/41 71/187/41
f 71/189/20 72/191/20 68/180/20 67/178/20
f 69/182/19 73/194/19 77/207/19 75/199/19
f 74/198/42 70/186/42 68/181/42 72/192/42
f 78/214/43 80/218/43 82/222/43
f 67/177/44 69/183/44 75/200/44 76/203/44
f 73/195/45 71/188/45 78/211/45 77/208/45
f 71/189/20 67/178/20 76/204/20 78/212/20
f 81/219/46 82/221/46 86/232/46 85/229/46
f 77/210/47 79/216/47 75/201/47
f 77/209/48 78/213/48 82/221/48 81/219/48
f 76/205/49 75/202/49 79/215/49 80/217/49
f 83/223/50 85/230/50 86/233/50 84/226/50
f 80/217/51 79/215/51 83/224/51 84/227/51
f 82/222/20 80/218/20 84/228/20 86/234/20
f 79/216/19 81/220/19 85/231/19 83/225/19
f 87/235/52 89/241/52 90/244/52 88/238/52
f 89/242/53 93/253/53 94/256/53 90/245/53
f 93/254/54 91/247/54 92/250/54 94/257/54
f 91/248/55 87/236/55 88/239/55 92/251/55
f 89/243/56 87/237/56 91/249/56 93/255/56
f 94/258/57 92/252/57 88/240/57 90/246/57
f 78/214/58 76/206/58 80/218/58
f 77/210/59 81/220/59 79/216/59
f 95/259/15 96/262/15 98/268/15 97/265/15
f 97/266/19 98/269/19 102/280/19 101/277/19
f 101/278/5 102/281/5 100/274/5 99/271/5
f 99/272/20 100/275/20 96/263/20 95/260/20
f 97/267/6 101/279/6 99/273/6 95/261/6
f 102/282/2 98/270/2 96/264/2 100/276/2
f 118/319/5 120/323/5 122/328/5 124/333/5 126/337/5 103/283/5
f 105/289/17 106/292/17 108/297/17 107/295/17
f 121/325/18 123/332/18 124/334/18 122/329/18
f 107/295/6 108/297/6 110/301/6 109/299/6
f 104/286/15 125/335/15 123/331/15 121/326/15 119/321/15 117/317/15
f 119/322/17 121/327/17 122/330/17 120/324/17
f 109/299/16 110/301/16 112/306/16 111/303/16
f 125/336/9 104/287/9 103/284/9 126/338/9
f 117/318/6 119/322/6 120/324/6 118/320/6
f 111/304/9 112/307/9 114/312/9 113/309/9
f 108/298/5 106/293/5 116/315/5 114/311/5 112/308/5 110/302/5
f 104/288/16 117/318/16 118/320/16 103/285/16
f 113/309/2 114/312/2 116/316/2 115/313/2
f 123/332/2 125/336/2 126/338/2 124/334/2
f 115/313/18 116/316/18 106/294/18 105/290/18
f 105/291/15 107/296/15 109/300/15 111/305/15 113/310/15 115/314/15
